<?xml version="1.0" encoding="UTF-8"?>
<svg width="64px" height="64px" viewBox="0 0 64 64" version="1.1" xmlns="http://www.w3.org/2000/svg" xmlns:xlink="http://www.w3.org/1999/xlink">
    <title>Favicon_cmpstudio_64</title>
    <defs>
        <path d="M28.5560323,62.0935586 L7.22269895,50.2842872 C4.95985593,49.0316687 3.55555556,46.6492022 3.55555556,44.0627932 L3.55555556,20.3810004 C3.55555556,17.8291522 4.92289904,15.4729495 7.13851248,14.2068584 L28.4718458,2.01612984 C30.6580618,0.766837682 33.3419382,0.766837682 35.5281542,2.01612984 L56.8614875,14.2068584 C59.077101,15.4729495 60.4444444,17.8291522 60.4444444,20.3810004 L60.4444444,44.0627932 C60.4444444,46.6492022 59.0401441,49.0316687 56.777301,50.2842872 L35.4439677,62.0935586 C33.3011882,63.2797148 30.6988118,63.2797148 28.5560323,62.0935586 Z" id="path-1"></path>
        <path d="M28.5560323,62.0935586 L7.22269895,50.2842872 C4.95985593,49.0316687 3.55555556,46.6492022 3.55555556,44.0627932 L3.55555556,20.3810004 C3.55555556,17.8291522 4.92289904,15.4729495 7.13851248,14.2068584 L28.4718458,2.01612984 C30.6580618,0.766837682 33.3419382,0.766837682 35.5281542,2.01612984 L56.8614875,14.2068584 C59.077101,15.4729495 60.4444444,17.8291522 60.4444444,20.3810004 L60.4444444,44.0627932 C60.4444444,46.6492022 59.0401441,49.0316687 56.777301,50.2842872 L35.4439677,62.0935586 C33.3011882,63.2797148 30.6988118,63.2797148 28.5560323,62.0935586 Z" id="path-3"></path>
    </defs>
    <g id="Guide" stroke="none" stroke-width="1" fill="none" fill-rule="evenodd">
        <g id="Cmp_Studio_01_guide02" transform="translate(-106.000000, -404.000000)">
            <g id="Favicon_cmpstudio_64" transform="translate(106.000000, 404.000000)">
                <rect id="Rectangle" fill-opacity="0" fill="#D8D8D8" x="0" y="0" width="64" height="64"></rect>
                <mask id="mask-2" fill="white">
                    <use xlink:href="#path-1"></use>
                </mask>
                <use id="Star" fill="#0A52E7" xlink:href="#path-1"></use>
                <path d="M62.2222222,41.4217186 C62.2222222,49.8517322 55.1345819,56.6856084 46.3915344,56.6856084 C43.6813211,56.6856084 41.1301771,56.0289366 38.8999103,54.8716078 L32,59.1111111 L25.1335666,54.8542168 C22.8953209,56.0223559 20.3322249,56.6856084 17.6084656,56.6856084 C8.86541814,56.6856084 1.77777778,49.8517322 1.77777778,41.4217186 L1.77877778,41.3324444 L1.78121778,41.1003069 C1.95293695,33.084986 8.53253145,26.5878737 16.7809732,26.178323 L17.2467974,26.1620478 C19.5485123,20.4742212 25.2861788,16.4444444 32,16.4444444 C38.7138212,16.4444444 44.4514877,20.4742212 46.7532026,26.1620478 C55.3285526,26.3464552 62.2222222,33.1078594 62.2222222,41.4217186 Z" id="cloud" fill="#729BF6" opacity="0.799583072" mask="url(#mask-2)"></path>
                <path d="M60.4444444,53.4217186 C60.4444444,61.8517322 53.7737241,68.6856084 45.5449735,68.6856084 C42.9937885,68.6856084 40.5923622,68.0287327 38.4930554,66.8710686 L32,71.1111111 L25.5381213,66.8538581 C23.4313841,68.0222202 21.018827,68.6856084 18.4550265,68.6856084 C10.2262759,68.6856084 3.55555556,61.8517322 3.55555556,53.4217186 L3.55655556,53.3324444 L3.55897027,53.0916423 C3.72487455,45.0803042 9.91576834,38.5877261 17.6762101,38.178323 L18.1146329,38.1620478 C20.2809528,32.4742212 25.6811094,28.4444444 32,28.4444444 C38.3188906,28.4444444 43.7190472,32.4742212 45.8853671,38.1620478 C53.9562848,38.3464552 60.4444444,45.1078594 60.4444444,53.4217186 Z" id="cloud" fill="#9BC7F0" mask="url(#mask-2)"></path>
                <path d="M60.4444444,64.0883853 C60.4444444,72.5183989 53.7737241,79.3522751 45.5449735,79.3522751 C42.9937885,79.3522751 40.5923622,78.6953993 38.4930554,77.5377353 L32,81.7777778 L25.5381213,77.5205248 C23.4313841,78.6888868 21.018827,79.3522751 18.4550265,79.3522751 C10.2262759,79.3522751 3.55555556,72.5183989 3.55555556,64.0883853 L3.55655556,63.9991111 L3.55897027,63.758309 C3.72487455,55.7469709 9.91576834,49.2543928 17.6762101,48.8449897 L18.1146329,48.8287145 C20.2809528,43.1408878 25.6811094,39.1111111 32,39.1111111 C38.3188906,39.1111111 43.7190472,43.1408878 45.8853671,48.8287145 C53.9562848,49.0131219 60.4444444,55.774526 60.4444444,64.0883853 Z" id="cloud" fill="#FFFFFF" mask="url(#mask-2)"></path>
                <mask id="mask-4" fill="white">
                    <use xlink:href="#path-3"></use>
                </mask>
                <path stroke="#EDF3FF" stroke-width="0.5" d="M28.5958825,2.23318952 C30.7052394,1.02781779 33.2947606,1.02781779 35.4041175,2.23318952 L35.4041175,2.23318952 L56.7374508,14.4239181 C57.8063112,15.0347081 58.6705596,15.908445 59.2675929,16.9372512 C59.8646262,17.9660574 60.1944444,19.149933 60.1944444,20.3810004 L60.1944444,20.3810004 L60.1944444,44.0627932 C60.1944444,45.3105335 59.8557118,46.5090806 59.244068,47.5467653 C58.6324241,48.58445 57.747869,49.4612722 56.6562241,50.0655628 L56.6562241,50.0655628 L35.3228907,61.8748342 C33.2554433,63.0192896 30.7445567,63.0192896 28.6771093,61.8748342 L28.6771093,61.8748342 L7.34377594,50.0655628 C6.25213097,49.4612722 5.36757587,48.58445 4.75593202,47.5467653 C4.14428817,46.5090806 3.80555556,45.3105335 3.80555556,44.0627932 L3.80555556,44.0627932 L3.80555556,20.3810004 C3.80555556,19.149933 4.13537376,17.9660574 4.73240706,16.9372512 C5.32944036,15.908445 6.19368876,15.0347081 7.26254916,14.4239181 L7.26254916,14.4239181 Z"></path>
                <rect id="shade" fill="#1968EC" opacity="0.299892607" mask="url(#mask-4)" x="32" y="0" width="28.4444444" height="64"></rect>
            </g>
        </g>
    </g>
</svg>